<?xml version="1.0" standalone="no"?>
<!DOCTYPE svg PUBLIC "-//W3C//DTD SVG 20010904//EN"
 "http://www.w3.org/TR/2001/REC-SVG-20010904/DTD/svg10.dtd">
<svg version="1.0" xmlns="http://www.w3.org/2000/svg"
 width="256.000000pt" height="256.000000pt" viewBox="0 0 256.000000 256.000000"
 preserveAspectRatio="xMidYMid meet">
<metadata>
Created by potrace 1.13, written by Peter Selinger 2001-2015
</metadata>
<g transform="translate(0.000000,256.000000) scale(0.100000,-0.100000)"
fill="#000000" stroke="none">
<path d="M460 1554 c-132 -28 -291 -96 -357 -152 -35 -31 -73 -93 -73 -121 0
-90 138 -190 355 -258 l90 -28 808 -3 808 -3 102 25 c103 25 269 81 326 110
l31 17 0 139 0 139 -31 17 c-56 29 -222 85 -324 110 l-100 24 -785 -1 c-631 0
-798 -3 -850 -15z m1666 -25 c74 -13 205 -52 307 -91 l77 -29 0 -129 0 -129
-77 -29 c-102 -39 -233 -78 -307 -91 -39 -7 -323 -11 -820 -11 l-761 0 -105
25 c-61 15 -144 45 -198 71 -231 112 -231 216 0 328 51 25 138 56 193 70 l100
25 766 0 c503 1 786 -3 825 -10z"/>
<path d="M550 1415 l0 -65 95 0 95 0 0 65 0 65 -95 0 -95 0 0 -65z"/>
<path d="M930 1415 l0 -65 123 1 c67 1 151 5 187 9 l65 7 -55 3 -55 3 55 7 55
7 -55 3 -55 3 55 7 55 7 -60 3 -60 3 60 7 60 7 -90 3 -90 4 90 6 90 6 -88 2
c-67 2 -89 5 -93 17 -5 12 -26 15 -100 15 l-94 0 0 -65z"/>
<path d="M1310 1350 l0 -130 95 0 95 0 0 -65 0 -65 95 0 95 0 0 65 c0 55 -3
65 -17 65 -11 0 -14 3 -8 8 6 4 11 16 11 27 0 11 -5 23 -11 27 -6 5 -4 8 5 8
13 0 13 1 0 10 -13 9 -13 10 0 11 10 0 8 3 -5 9 l-20 9 20 1 c35 4 -35 17
-105 21 l-65 3 80 6 80 6 -75 4 -75 4 75 6 75 6 -75 4 -75 4 75 6 75 6 -77 2
-78 2 0 35 0 35 -95 0 -95 0 0 -130z"/>
<path d="M1690 1415 l0 -65 153 0 c83 0 163 3 176 7 23 6 23 7 5 14 -19 7 -19
8 1 9 l20 1 -20 9 -20 9 20 1 c17 2 16 3 -5 10 -23 7 -23 8 10 10 l35 3 -35 7
-35 7 35 3 c34 3 34 3 -10 10 l-45 7 45 3 c40 3 38 4 -25 10 -38 4 -123 8
-187 9 l-118 1 0 -65z"/>
<path d="M360 1280 l0 -190 59 0 c32 0 74 3 92 7 33 7 33 7 9 14 l-25 7 25 2
25 2 -25 8 -25 8 25 2 25 2 -25 8 -25 8 25 2 c24 2 23 3 -5 10 l-30 8 30 2 30
3 -35 7 -35 7 35 3 c34 3 34 3 -10 10 l-45 7 48 1 47 2 0 65 0 65 -42 1 -43 2
40 7 40 7 -40 3 -40 3 40 7 40 7 -40 3 -40 3 40 7 40 7 -40 3 -40 3 40 7 40 7
-45 3 -45 3 45 7 45 7 -60 3 -60 3 60 7 c57 6 56 7 -32 8 l-93 2 0 -190z"/>
<path d="M2308 1443 l52 -4 0 -160 0 -159 -45 0 c-33 0 -45 4 -45 15 0 11 11
15 36 15 l37 0 -7 53 c-3 28 -6 62 -6 75 0 19 -5 22 -35 22 l-35 0 0 -95 0
-95 55 0 55 0 0 170 0 170 -57 -2 -58 -2 53 -3z"/>
<path d="M750 1280 l0 -60 38 1 c20 0 60 4 87 9 l50 7 -40 3 -40 3 40 7 40 7
-40 3 -40 3 40 7 40 7 -45 3 -45 3 45 7 45 7 -50 3 -50 3 50 7 50 7 -70 3 -70
4 70 6 70 6 -87 2 -88 2 0 -60z"/>
<path d="M550 1155 l0 -65 58 0 c31 0 116 3 187 8 118 6 124 8 65 13 l-65 6
65 3 65 3 -65 7 -65 7 65 3 65 4 -90 6 -90 6 90 4 90 4 -90 6 -90 6 90 4 90 4
-90 6 -90 6 90 4 90 3 -100 7 c-55 4 -139 8 -187 9 l-88 1 0 -65z"/>
<path d="M930 1155 l0 -65 190 0 191 0 -3 63 -3 62 -187 3 -188 2 0 -65z"/>
<path d="M1880 1155 l0 -65 95 0 c94 0 95 0 95 24 0 13 -6 26 -12 29 -7 2 -13
19 -13 38 l0 34 -82 3 -83 3 0 -66z"/>
</g>
</svg>
